<?xml version="1.0" standalone="no"?>
<!DOCTYPE svg PUBLIC "-//W3C//DTD SVG 20010904//EN"
 "http://www.w3.org/TR/2001/REC-SVG-20010904/DTD/svg10.dtd">
<svg version="1.0" xmlns="http://www.w3.org/2000/svg"
 width="1024.000000pt" height="1024.000000pt" viewBox="0 0 1024.000000 1024.000000"
 preserveAspectRatio="xMidYMid meet">
<metadata>
Created by potrace 1.14, written by Peter Selinger 2001-2017
</metadata>
<g transform="translate(0.000000,1024.000000) scale(0.100000,-0.100000)"
fill="#000000" stroke="none">
<path d="M1135 10224 c-33 -8 -73 -22 -90 -31 -16 -9 -31 -16 -33 -14 -8 7
-117 -64 -166 -110 -47 -43 -140 -167 -141 -188 -1 -3 -9 -21 -18 -38 -10 -18
-15 -33 -11 -33 4 0 1 -6 -5 -14 -6 -8 -11 -18 -10 -22 1 -5 0 -11 -1 -14 -1
-3 -4 -14 -8 -25 -4 -11 -8 -2079 -9 -4595 -2 -4058 -1 -4582 12 -4635 9 -33
17 -65 18 -71 2 -7 20 -46 41 -88 26 -54 58 -98 109 -149 64 -64 177 -148 177
-130 0 3 8 -1 17 -10 10 -8 21 -16 26 -16 4 0 24 -5 45 -11 69 -21 97 -24 192
-24 99 0 155 6 167 17 3 4 14 7 24 7 9 0 54 19 99 41 61 31 101 60 154 114 83
84 88 90 106 132 8 18 18 33 22 33 5 0 8 9 8 20 0 11 5 20 10 20 6 0 9 3 8 8
-1 4 6 32 16 62 9 30 19 89 22 130 3 41 8 78 10 82 3 4 1 8 -5 8 -6 0 -6 11
-1 30 5 17 5 30 0 30 -5 0 -5 13 0 30 5 17 5 30 0 30 -5 0 -5 13 0 30 5 17 5
30 0 30 -5 0 -5 13 0 30 5 17 5 30 0 30 -5 0 -5 13 0 30 5 17 5 30 0 30 -5 0
-5 13 0 30 5 17 5 30 0 30 -5 0 -5 13 0 30 5 17 5 30 0 30 -5 0 -5 13 0 30 5
17 5 30 0 30 -5 0 -5 13 0 30 5 17 5 30 1 30 -4 0 -5 22 -1 50 3 27 3 55 -1
62 -4 6 -3 20 2 29 6 11 5 20 -1 24 -5 3 -6 15 -1 28 5 12 5 34 0 49 -4 16 -4
28 1 28 5 0 5 13 0 30 -5 17 -5 30 0 30 5 0 5 12 1 28 -5 15 -5 37 0 49 5 13
4 25 -1 28 -6 3 -6 15 0 30 6 15 6 27 0 30 -6 3 -6 15 0 30 6 15 6 27 0 30 -6
3 -6 15 0 30 5 14 5 27 0 30 -5 3 -5 18 0 35 5 17 5 30 0 30 -5 0 -5 13 0 30
5 17 5 30 0 30 -5 0 -5 13 0 30 5 17 5 30 0 30 -5 0 -5 13 0 30 5 17 5 30 0
30 -5 0 -5 13 0 30 5 17 5 30 0 30 -5 0 -5 13 0 30 5 17 5 30 0 30 -5 0 -5 13
0 30 5 17 5 30 0 30 -5 0 -5 13 0 30 5 17 5 30 0 30 -5 0 -5 13 0 30 5 17 5
30 0 30 -5 0 -5 13 0 30 5 17 5 30 0 30 -5 0 -5 13 0 30 5 17 5 30 1 30 -4 0
-4 27 -1 60 3 33 3 60 -1 60 -4 0 -4 14 1 30 5 17 5 30 0 30 -5 0 -5 13 0 30
5 17 5 30 0 30 -5 0 -5 13 0 30 5 17 5 30 0 30 -5 0 -5 13 0 30 5 17 5 30 0
30 -5 0 -5 13 0 30 5 17 5 30 0 30 -5 0 -5 13 0 30 5 17 5 30 0 30 -5 0 -5 13
0 30 5 17 5 30 0 30 -5 0 -5 13 0 30 5 17 5 30 0 30 -5 0 -5 13 0 30 5 17 5
30 0 30 -4 0 -6 9 -3 20 3 13 19 23 42 29 65 17 166 43 184 47 9 2 26 6 38 9
11 2 29 7 39 10 10 3 27 7 37 9 10 2 47 12 83 21 36 10 74 19 85 21 11 2 197
48 414 103 336 86 495 123 621 148 14 2 39 6 56 7 17 2 36 6 43 10 6 4 11 5
11 2 0 -3 12 -1 26 4 18 7 23 7 18 -2 -4 -6 -3 -8 3 -5 14 9 71 18 141 22 31
2 57 4 57 5 0 5 481 7 489 2 5 -3 32 -7 60 -8 114 -8 182 -16 309 -40 44 -8
83 -11 88 -8 5 3 9 1 9 -4 0 -5 6 -9 13 -10 57 -6 222 -45 297 -71 14 -5 45
-14 70 -22 25 -7 49 -16 55 -21 5 -4 17 -8 27 -8 10 0 26 -4 36 -9 9 -5 44
-19 77 -31 33 -12 69 -26 80 -30 56 -24 142 -64 255 -118 69 -32 179 -80 245
-106 66 -26 129 -51 140 -56 17 -8 64 -22 260 -80 17 -5 45 -12 64 -15 19 -3
39 -9 45 -12 5 -4 19 -7 30 -8 12 -1 55 -9 96 -18 41 -9 93 -19 115 -22 22 -3
51 -8 65 -10 156 -26 496 -45 522 -29 4 3 8 1 8 -4 0 -4 22 -6 50 -2 27 3 56
2 65 -2 8 -5 15 -5 15 -1 0 5 21 9 48 10 65 2 177 11 177 13 0 2 20 4 45 5 25
2 47 4 50 5 3 1 10 3 15 5 6 1 12 3 15 4 3 1 25 4 50 6 25 2 79 11 120 20 41
9 86 18 100 21 14 2 36 7 50 11 14 3 30 7 35 8 76 18 268 78 348 108 37 14 67
24 67 20 0 -3 6 -1 13 4 6 6 44 22 82 36 39 14 84 32 100 38 17 7 34 11 39 10
4 -1 15 4 23 11 8 7 21 13 27 14 25 3 421 156 444 170 12 8 22 12 22 9 0 -8
108 75 145 112 44 43 85 96 85 110 0 6 3 13 8 15 17 7 62 120 76 193 15 72 16
329 14 2635 -2 1405 -7 2568 -11 2583 -56 206 -192 367 -369 435 -115 44 -104
41 -203 46 -69 4 -111 0 -200 -18 -31 -7 -74 -26 -283 -129 -106 -52 -196 -96
-200 -97 -25 -8 -60 -21 -74 -30 -10 -6 -23 -10 -29 -10 -6 0 -25 -6 -42 -14
-18 -8 -61 -24 -97 -36 -36 -12 -72 -24 -80 -27 -18 -7 -38 -12 -65 -17 -11
-2 -27 -6 -35 -9 -94 -38 -409 -92 -655 -113 -174 -14 -548 2 -695 31 -14 3
-47 7 -73 10 -27 3 -52 7 -56 10 -5 2 -23 7 -42 10 -43 6 -92 18 -194 45 -44
11 -88 23 -98 25 -9 2 -22 7 -27 10 -5 3 -18 8 -27 10 -10 2 -40 11 -68 21
-27 9 -57 19 -65 22 -8 3 -18 4 -22 4 -5 -1 -8 3 -8 8 0 5 -3 9 -7 8 -5 0 -17
2 -28 7 -104 42 -156 65 -255 112 -111 53 -180 85 -190 88 -3 1 -16 6 -30 12
-96 41 -174 69 -375 133 -32 10 -147 39 -180 45 -11 2 -56 11 -100 20 -44 9
-96 18 -115 21 -19 3 -38 8 -42 11 -5 2 -8 -1 -8 -8 0 -8 -4 -8 -13 -1 -7 6
-22 11 -32 11 -11 0 -42 3 -70 6 -27 3 -77 7 -110 10 -33 2 -60 4 -60 5 0 4
-321 5 -330 1 -5 -3 -35 -6 -65 -7 -63 -2 -175 -12 -211 -19 -13 -3 -44 -8
-69 -11 -25 -3 -54 -8 -65 -10 -11 -2 -33 -7 -50 -9 -16 -3 -37 -8 -45 -10 -8
-2 -31 -7 -50 -11 -45 -8 -65 -12 -65 -14 0 -1 -7 -3 -15 -5 -8 -1 -55 -13
-105 -25 -49 -12 -98 -23 -108 -25 -9 -2 -21 -6 -25 -9 -5 -3 -19 -7 -33 -9
-13 -3 -89 -21 -169 -42 -80 -20 -158 -39 -175 -42 -16 -3 -38 -9 -47 -14 -10
-5 -18 -7 -18 -5 0 3 -11 1 -25 -4 -14 -5 -36 -12 -48 -14 -50 -11 -70 -16
-162 -40 -53 -14 -101 -24 -106 -20 -5 3 -9 1 -9 -4 0 -5 -6 -9 -12 -9 -7 0
-60 -13 -118 -28 -150 -38 -220 -53 -215 -46 2 4 0 13 -5 21 -5 8 -5 21 0 30
5 9 5 22 0 30 -5 8 -5 21 1 31 6 11 5 20 -1 24 -6 3 -6 15 0 30 6 15 6 27 0
30 -6 3 -6 15 0 30 6 15 6 27 0 30 -7 4 -7 13 0 24 5 10 7 20 5 23 -2 2 -7 30
-10 62 -7 77 -22 141 -40 177 -9 16 -15 31 -15 34 2 11 -54 105 -62 105 -4 0
-8 6 -8 13 0 17 -94 107 -157 151 -29 20 -55 36 -57 36 -2 0 -21 8 -42 17 -22
9 -42 18 -46 19 -5 1 -9 2 -10 4 -2 1 -10 3 -18 5 -8 2 -28 6 -45 10 -57 14
-219 13 -280 -1z"/>
</g>
</svg>
